<svg width="256" height="69" viewBox="0 0 256 69" fill="none" xmlns="http://www.w3.org/2000/svg">
<path d="M286.615 126.501C288.237 165.72 220.837 139.508 175.795 126.501C165.696 123.585 156.164 124.061 147.464 126.04C147.397 126.191 147.327 126.344 147.254 126.501C142.993 135.545 136.261 135.505 129.129 132.348C111.369 140.085 99.7738 148.178 98.2122 129.138C88.7548 130.042 81.1978 128.454 79.2866 121C65.2504 66.2503 8.01125 138.036 1.19839 82.8851C-4.04744 40.4197 39.8225 22.0956 85.2525 7.9298C145.325 -10.8018 188.108 44.6494 253.477 40.7083C307.278 37.4646 329.281 -13.7625 381.461 3.91793C460.182 30.591 439.821 118.667 359.306 126.501C330.39 129.315 311.145 122.341 286.371 124.067C286.496 124.79 286.578 125.599 286.615 126.501Z" fill="url(#paint0_linear_6_1257)"/>
<defs>
<linearGradient id="paint0_linear_6_1257" x1="-10" y1="110.018" x2="230.958" y2="-165.715" gradientUnits="userSpaceOnUse">
<stop stop-color="#4F2B82"/>
<stop offset="1" stop-color="#DC38AA"/>
</linearGradient>
</defs>
</svg>
