<svg width="114" height="241" viewBox="0 0 114 241" fill="none" xmlns="http://www.w3.org/2000/svg">
<path d="M-254.968 170.541C-255.874 204.334 -237.675 251.123 -200.212 242.675C-171.895 236.29 -197.661 204.154 -162.84 185.981C-128.019 167.807 -82.5901 173.269 -60.8614 203.192C-44.8608 225.226 -73.2195 246.254 -60.8614 270.01C-32.4556 324.615 108.444 312.594 113.834 252.799C117.407 213.164 62.2306 207.401 45.1728 170.541C24.4472 125.757 66.936 85.6182 33.2946 47.2812C7.85339 18.2889 -21.2008 -8.84112 -60.8614 2.73538C-112.369 17.77 -11.6103 104.234 -60.8614 124.224C-83.7427 133.511 -100.512 127.469 -125.467 124.224C-155.972 120.257 -170.289 95.4283 -200.212 101.951C-236.481 109.857 -254.092 137.893 -254.968 170.541Z" fill="url(#paint0_linear_6_1341)"/>
<defs>
<linearGradient id="paint0_linear_6_1341" x1="-255" y1="0" x2="44.5491" y2="362.405" gradientUnits="userSpaceOnUse">
<stop stop-color="#4F2B82"/>
<stop offset="1" stop-color="#DC38AA"/>
</linearGradient>
</defs>
</svg>
