<svg width="121" height="199" viewBox="0 0 121 199" fill="none" xmlns="http://www.w3.org/2000/svg">
<path d="M295.338 321.715C319.012 297.584 337.545 250.927 304.357 231.603C279.271 216.997 276.258 258.076 238.382 247.674C200.506 237.272 170.957 202.338 175.419 165.629C178.705 138.597 213.793 142.507 220.919 116.695C237.299 57.3627 125.927 -29.7783 81.263 10.3413C51.6574 36.9348 88.1405 78.7274 75.5335 117.336C60.2159 164.247 1.7677 164.709 0.299249 215.693C-0.811254 254.249 1.99223 293.901 38.9201 312.43C86.879 336.494 71.9664 204.562 121.647 223.459C144.727 232.239 152.894 248.083 168.96 267.452C188.599 291.129 182.176 319.061 208.532 334.661C240.477 353.568 272.465 345.028 295.338 321.715Z" fill="url(#paint0_linear_6_1380)"/>
<defs>
<linearGradient id="paint0_linear_6_1380" x1="179.232" y1="446.63" x2="206.638" y2="-22.748" gradientUnits="userSpaceOnUse">
<stop stop-color="#4F2B82"/>
<stop offset="1" stop-color="#DC38AA"/>
</linearGradient>
</defs>
</svg>
